<svg width="402" height="102" viewBox="0 0 402 102" fill="none" xmlns="http://www.w3.org/2000/svg">
<path d="M1 51C51.6667 -15.6667 65 -15.6667 41 51C17 117.667 30.3333 117.667 81 51C131.667 -15.6667 145 -15.6667 121 51C97 117.667 110.333 117.667 161 51C211.667 -15.6667 225 -15.6667 201 51C177 117.667 190.333 117.667 241 51C291.667 -15.6667 305 -15.6667 281 51C257 117.667 270.333 117.667 321 51C371.667 -15.6667 385 -15.6667 361 51C337 117.667 350.333 117.667 401 51" stroke="#AEA89F" stroke-width="2"/>
<path d="M82.8531 42.5H85.7531L88.0781 50.825L88.1281 52.3H89.0531L89.0781 50.825L91.4281 42.5H94.3031V60H92.4781V52.425L93.1531 43.925H92.2531L90.8781 50.4L90.0781 53.7H87.1031L86.2781 50.4L84.9281 43.925H84.0031L84.7031 52.425V60H82.8531V42.5ZM109.793 60H107.893L106.568 55.075H100.568L99.2434 60H97.3434L102.043 42.5H105.093L109.793 60ZM106.093 53.25L104.093 45.85L104.018 43.925H103.118L103.043 45.85L101.043 53.25H106.093ZM113.384 42.5H119.459C121.042 42.5 122.259 42.9 123.109 43.7C123.959 44.5 124.384 45.65 124.384 47.15C124.384 48.3167 124.1 49.2417 123.534 49.925C122.984 50.5917 122.317 51.0167 121.534 51.2C120.75 51.3667 120.059 51.325 119.459 51.075V52L120.184 52.35C120.417 52.4833 120.617 52.6583 120.784 52.875C120.967 53.075 121.142 53.3417 121.309 53.675L124.484 60H122.384L118.384 52.075H115.234V60H113.384V42.5ZM119.259 50.25C120.325 50.25 121.134 50.0083 121.684 49.525C122.25 49.0417 122.534 48.2917 122.534 47.275C122.534 46.2917 122.284 45.5583 121.784 45.075C121.284 44.575 120.5 44.325 119.434 44.325H115.234V50.25H119.259ZM133.524 43.925C132.207 43.925 131.224 44.55 130.574 45.8C129.94 47.0333 129.624 48.85 129.624 51.25C129.624 53.6333 129.94 55.4333 130.574 56.65C131.224 57.8667 132.207 58.475 133.524 58.475C134.257 58.475 134.89 58.2667 135.424 57.85C135.974 57.4167 136.39 56.8333 136.674 56.1C136.957 55.3667 137.082 54.5333 137.049 53.6H138.874C138.874 54.9167 138.649 56.0833 138.199 57.1C137.765 58.1167 137.14 58.9083 136.324 59.475C135.507 60.025 134.574 60.3 133.524 60.3C131.657 60.3 130.232 59.5167 129.249 57.95C128.282 56.3667 127.799 54.1333 127.799 51.25C127.799 48.35 128.282 46.1 129.249 44.5C130.232 42.9 131.657 42.1 133.524 42.1C134.557 42.1 135.465 42.3667 136.249 42.9C137.049 43.4333 137.674 44.1917 138.124 45.175C138.574 46.1417 138.807 47.25 138.824 48.5H136.974C136.99 47.65 136.857 46.8833 136.574 46.2C136.307 45.5 135.907 44.95 135.374 44.55C134.84 44.1333 134.224 43.925 133.524 43.925ZM147.614 58.175V44.325H143.539V42.5H153.539V44.325H149.464V58.175H153.539V60H143.539V58.175H147.614ZM168.954 42.5V60H166.629L161.379 48.6L160.004 44.075H159.079L159.954 49.275V60H158.104V42.5H160.479L165.729 53.9L167.054 58.425H167.979L167.104 53.225V42.5H168.954ZM187.76 44.325V42.5H199.26V44.325H194.435V60H192.585V44.325H187.76ZM208.5 58.425C209.217 58.425 209.817 58.3167 210.3 58.1C210.783 57.8833 211.158 57.4833 211.425 56.9C211.692 56.3 211.825 55.4583 211.825 54.375V42.5H213.675V54.3C213.675 56.2167 213.275 57.6917 212.475 58.725C211.692 59.7417 210.367 60.25 208.5 60.25C206.633 60.25 205.3 59.7417 204.5 58.725C203.717 57.6917 203.325 56.2167 203.325 54.3V42.5H205.175V54.375C205.175 55.4583 205.308 56.3 205.575 56.9C205.842 57.4833 206.217 57.8833 206.7 58.1C207.183 58.3167 207.783 58.425 208.5 58.425ZM223.465 43.925C222.149 43.925 221.165 44.55 220.515 45.8C219.882 47.0333 219.565 48.85 219.565 51.25C219.565 53.6333 219.882 55.4333 220.515 56.65C221.165 57.8667 222.149 58.475 223.465 58.475C224.199 58.475 224.832 58.2667 225.365 57.85C225.915 57.4167 226.332 56.8333 226.615 56.1C226.899 55.3667 227.024 54.5333 226.99 53.6H228.815C228.815 54.9167 228.59 56.0833 228.14 57.1C227.707 58.1167 227.082 58.9083 226.265 59.475C225.449 60.025 224.515 60.3 223.465 60.3C221.599 60.3 220.174 59.5167 219.19 57.95C218.224 56.3667 217.74 54.1333 217.74 51.25C217.74 48.35 218.224 46.1 219.19 44.5C220.174 42.9 221.599 42.1 223.465 42.1C224.499 42.1 225.407 42.3667 226.19 42.9C226.99 43.4333 227.615 44.1917 228.065 45.175C228.515 46.1417 228.749 47.25 228.765 48.5H226.915C226.932 47.65 226.799 46.8833 226.515 46.2C226.249 45.5 225.849 44.95 225.315 44.55C224.782 44.1333 224.165 43.925 223.465 43.925ZM234.905 51.85V60H233.055V42.5H234.905V50H242.055V42.5H243.905V60H242.055V51.85H234.905ZM258.846 42.5V44.325H250.146V49.775H257.846V51.625H250.146V58.175H258.846V60H248.296V42.5H258.846ZM270.936 54.025L271.211 58.575H272.136L271.886 55L272.836 42.5H274.686L273.236 60H270.336L268.911 52.3V50.575H268.011V52.3L266.586 60H263.686L262.236 42.5H264.086L265.036 55L264.786 58.575H265.711L265.986 54.025L266.861 49.15H270.061L270.936 54.025ZM282.526 58.175V44.325H278.451V42.5H288.451V44.325H284.376V58.175H288.451V60H278.451V58.175H282.526ZM298.416 43.925C297.1 43.925 296.116 44.55 295.466 45.8C294.833 47.0333 294.516 48.85 294.516 51.25C294.516 53.6333 294.833 55.4333 295.466 56.65C296.116 57.8667 297.1 58.475 298.416 58.475C299.15 58.475 299.783 58.2667 300.316 57.85C300.866 57.4167 301.283 56.8333 301.566 56.1C301.85 55.3667 301.975 54.5333 301.941 53.6H303.766C303.766 54.9167 303.541 56.0833 303.091 57.1C302.658 58.1167 302.033 58.9083 301.216 59.475C300.4 60.025 299.466 60.3 298.416 60.3C296.55 60.3 295.125 59.5167 294.141 57.95C293.175 56.3667 292.691 54.1333 292.691 51.25C292.691 48.35 293.175 46.1 294.141 44.5C295.125 42.9 296.55 42.1 298.416 42.1C299.45 42.1 300.358 42.3667 301.141 42.9C301.941 43.4333 302.566 44.1917 303.016 45.175C303.466 46.1417 303.7 47.25 303.716 48.5H301.866C301.883 47.65 301.75 46.8833 301.466 46.2C301.2 45.5 300.8 44.95 300.266 44.55C299.733 44.1333 299.116 43.925 298.416 43.925ZM318.932 60L307.707 59.95V57.825L314.207 48.55L317.807 44.65V43.725L313.407 44.325H307.932V42.5H319.232V44.65L312.732 53.9L309.132 57.825V58.725L313.432 58.175H318.932V60Z" fill="#232323"/>
</svg>
